<svg width="21" height="32" viewBox="0 0 21 32" fill="none" xmlns="http://www.w3.org/2000/svg">
<g clip-path="url(#clip0_809_64)">
<path d="M5.66968 21.6058H15.119V26.3304H5.66968V21.6058Z" fill="white"/>
<path d="M10.3943 3.65202C4.66286 3.65202 0 8.31495 0 14.0463V28.2203C0 30.3044 1.69559 32 3.77973 32H17.0088C19.0929 32 20.7885 30.3044 20.7885 28.2203V14.0463C20.7885 8.31489 16.1257 3.65202 10.3943 3.65202ZM4.72466 12.1564H16.0638V14.0463H14.174V15.9361H12.2841V14.0463H4.72466V12.1564ZM17.0088 28.2203H3.77973V19.7159H17.0088V28.2203Z" fill="white"/>
<path d="M20.099 1.83877L14.7358 0L13.9514 2.288C15.8466 2.86245 17.5493 3.88336 18.9369 5.22799L20.099 1.83877Z" fill="white"/>
<path d="M6.83706 2.288L6.05258 0L0.689453 1.83877L1.85147 5.22799C3.23913 3.88342 4.94184 2.86245 6.83706 2.288Z" fill="white"/>
</g>
<defs>
<clipPath id="clip0_809_64">
<rect width="20.7885" height="32" fill="white"/>
</clipPath>
</defs>
</svg>
